<svg version="1.1" viewBox="0.0 0.0 182.01049868766404 174.31758530183728" fill="none" stroke="none" stroke-linecap="square" stroke-miterlimit="10" xmlns:xlink="http://www.w3.org/1999/xlink" xmlns="http://www.w3.org/2000/svg"><clipPath id="p.0"><path d="m0 0l182.0105 0l0 174.31758l-182.0105 0l0 -174.31758z" clip-rule="nonzero"/></clipPath><g clip-path="url(#p.0)"><path fill="#000000" fill-opacity="0.0" d="m0 0l182.0105 0l0 174.31758l-182.0105 0z" fill-rule="evenodd"/><path fill="#ffffff" d="m180.53087 95.36348l0 0c-8.471268 -12.054588 -33.169647 -9.30484 -55.16536 6.1417313c-21.99572 15.446579 -32.959457 37.740685 -24.48819 49.79528l0 0c4.5738983 -13.47261 16.48777 -27.877777 32.157486 -38.88189c15.669708 -11.004112 33.266296 -17.322784 47.496063 -17.055122z" fill-rule="evenodd"/><path stroke="#d9d9d9" stroke-width="1.0" stroke-linejoin="round" stroke-linecap="butt" d="m180.53087 95.36348l0 0c-8.471268 -12.054588 -33.169647 -9.30484 -55.16536 6.1417313c-21.99572 15.446579 -32.959457 37.740685 -24.48819 49.79528l0 0c4.5738983 -13.47261 16.48777 -27.877777 32.157486 -38.88189c15.669708 -11.004112 33.266296 -17.322784 47.496063 -17.055122z" fill-rule="evenodd"/><path fill="#ffffff" d="m35.198162 171.77296l0 -51.55905l0 0c0 -28.47528 20.221218 -51.55906 45.165356 -51.55906c24.944138 0 45.16535 23.083778 45.16535 51.55906l0 51.55905z" fill-rule="evenodd"/><path stroke="#d9d9d9" stroke-width="1.0" stroke-linejoin="round" stroke-linecap="butt" d="m35.198162 171.77296l0 -51.55905l0 0c0 -28.47528 20.221218 -51.55906 45.165356 -51.55906c24.944138 0 45.16535 23.083778 45.16535 51.55906l0 51.55905z" fill-rule="evenodd"/><path fill="#ffffff" d="m93.325485 152.84416l0.33070374 -30.0l14.944885 -12.48819l-0.6614151 60.0z" fill-rule="evenodd"/><path stroke="#d9d9d9" stroke-width="1.0" stroke-linejoin="round" stroke-linecap="butt" d="m93.325485 152.84416l0.33070374 -30.0l14.944885 -12.48819l-0.6614151 60.0z" fill-rule="evenodd"/><path fill="#ffffff" d="m67.83198 152.24635l0.31495667 -29.307083l-14.22047 -11.889763l-0.62992096 58.614174z" fill-rule="evenodd"/><path stroke="#d9d9d9" stroke-width="1.0" stroke-linejoin="round" stroke-linecap="butt" d="m67.83198 152.24635l0.31495667 -29.307083l-14.22047 -11.889763l-0.62992096 58.614174z" fill-rule="evenodd"/><path fill="#ffffff" d="m88.23491 171.77296l0 -10.236221l0 0c0 -5.653305 5.0553055 -10.236221 11.291336 -10.236221c6.236038 0 11.291344 4.5829163 11.291344 10.236221l0 10.236221z" fill-rule="evenodd"/><path stroke="#d9d9d9" stroke-width="1.0" stroke-linejoin="round" stroke-linecap="butt" d="m88.23491 171.77296l0 -10.236221l0 0c0 -5.653305 5.0553055 -10.236221 11.291336 -10.236221c6.236038 0 11.291344 4.5829163 11.291344 10.236221l0 10.236221z" fill-rule="evenodd"/><path fill="#ffffff" d="m49.788715 171.77296l0 -10.236221l0 0c0 -5.653305 5.0553017 -10.236221 11.291336 -10.236221c6.2360344 0 11.29134 4.5829163 11.29134 10.236221l0 10.236221z" fill-rule="evenodd"/><path stroke="#d9d9d9" stroke-width="1.0" stroke-linejoin="round" stroke-linecap="butt" d="m49.788715 171.77296l0 -10.236221l0 0c0 -5.653305 5.0553017 -10.236221 11.291336 -10.236221c6.2360344 0 11.29134 4.5829163 11.29134 10.236221l0 10.236221z" fill-rule="evenodd"/><path fill="#ffffff" d="m16.03062 71.76451l0 0c8.8539505 4.0964737 22.687294 -6.9871216 30.897636 -24.755909q7.433071 -16.086613 14.866142 -32.173225q-8.015747 -3.708662 -16.031494 -7.417323l0 0c-8.8539505 -4.096474 -22.687296 6.9871225 -30.89764 24.755905l0 0c-8.210343 17.768784 -7.6885962 35.49408 1.1653547 39.590553z" fill-rule="evenodd"/><path stroke="#d9d9d9" stroke-width="1.0" stroke-linejoin="round" stroke-linecap="butt" d="m16.03062 71.76451l0 0c8.8539505 4.0964737 22.687294 -6.9871216 30.897636 -24.755909q7.433071 -16.086613 14.866142 -32.173225q-8.015747 -3.708662 -16.031494 -7.417323l0 0c-8.8539505 -4.096474 -22.687296 6.9871225 -30.89764 24.755905l0 0c-8.210343 17.768784 -7.6885962 35.49408 1.1653547 39.590553z" fill-rule="evenodd"/><path fill="#ffffff" d="m146.72353 71.76451l0 0c-8.853943 4.0964737 -22.687286 -6.9871216 -30.897629 -24.755909q-7.433075 -16.086613 -14.866142 -32.173225q8.015747 -3.708662 16.031494 -7.417323l0 0c8.8539505 -4.096474 22.687294 6.9871225 30.897636 24.755905l0 0c8.210342 17.768784 7.6885986 35.49408 -1.1653595 39.590553z" fill-rule="evenodd"/><path stroke="#d9d9d9" stroke-width="1.0" stroke-linejoin="round" stroke-linecap="butt" d="m146.72353 71.76451l0 0c-8.853943 4.0964737 -22.687286 -6.9871216 -30.897629 -24.755909q-7.433075 -16.086613 -14.866142 -32.173225q8.015747 -3.708662 16.031494 -7.417323l0 0c8.8539505 -4.096474 22.687294 6.9871225 30.897636 24.755905l0 0c8.210342 17.768784 7.6885986 35.49408 -1.1653595 39.590553z" fill-rule="evenodd"/><path fill="#ffffff" d="m33.61286 50.867455l0 0c0 -26.4053 21.384571 -47.811024 47.76378 -47.811024l0 0c12.66774 0 24.816643 5.0372186 33.774094 14.003525c8.957443 8.966305 13.989693 21.127228 13.989693 33.8075l0 0c0 26.405296 -21.384583 47.81102 -47.763786 47.81102l0 0c-26.379208 0 -47.76378 -21.405724 -47.76378 -47.81102z" fill-rule="evenodd"/><path stroke="#d9d9d9" stroke-width="1.0" stroke-linejoin="round" stroke-linecap="butt" d="m33.61286 50.867455l0 0c0 -26.4053 21.384571 -47.811024 47.76378 -47.811024l0 0c12.66774 0 24.816643 5.0372186 33.774094 14.003525c8.957443 8.966305 13.989693 21.127228 13.989693 33.8075l0 0c0 26.405296 -21.384583 47.81102 -47.763786 47.81102l0 0c-26.379208 0 -47.76378 -21.405724 -47.76378 -47.81102z" fill-rule="evenodd"/><path fill="#ffffff" d="m56.631233 39.59186l0 0c0 -6.583927 5.3161774 -11.921259 11.874016 -11.921259l0 0c3.1491852 0 6.169388 1.2559872 8.396194 3.4916573c2.2268143 2.23567 3.4778214 5.267889 3.4778214 8.429602l0 0c0 6.583931 -5.3161774 11.921261 -11.874016 11.921261l0 0c-6.5578384 0 -11.874016 -5.33733 -11.874016 -11.921261z" fill-rule="evenodd"/><path stroke="#000000" stroke-width="1.0" stroke-linejoin="round" stroke-linecap="butt" d="m56.631233 39.59186l0 0c0 -6.583927 5.3161774 -11.921259 11.874016 -11.921259l0 0c3.1491852 0 6.169388 1.2559872 8.396194 3.4916573c2.2268143 2.23567 3.4778214 5.267889 3.4778214 8.429602l0 0c0 6.583931 -5.3161774 11.921261 -11.874016 11.921261l0 0c-6.5578384 0 -11.874016 -5.33733 -11.874016 -11.921261z" fill-rule="evenodd"/><path fill="#ffffff" d="m81.03018 39.59186l0 0c0 -6.583927 5.3161774 -11.921259 11.874016 -11.921259l0 0c3.1491852 0 6.169388 1.2559872 8.396202 3.4916573c2.2268066 2.23567 3.4778137 5.267889 3.4778137 8.429602l0 0c0 6.583931 -5.3161774 11.921261 -11.874016 11.921261l0 0c-6.5578384 0 -11.874016 -5.33733 -11.874016 -11.921261z" fill-rule="evenodd"/><path stroke="#000000" stroke-width="1.0" stroke-linejoin="round" stroke-linecap="butt" d="m81.03018 39.59186l0 0c0 -6.583927 5.3161774 -11.921259 11.874016 -11.921259l0 0c3.1491852 0 6.169388 1.2559872 8.396202 3.4916573c2.2268066 2.23567 3.4778137 5.267889 3.4778137 8.429602l0 0c0 6.583931 -5.3161774 11.921261 -11.874016 11.921261l0 0c-6.5578384 0 -11.874016 -5.33733 -11.874016 -11.921261z" fill-rule="evenodd"/><path fill="#000000" d="m70.45801 42.77034l0 0c0 -2.530941 2.2209473 -4.582676 4.9606247 -4.582676l0 0c2.739685 0 4.9606323 2.051735 4.9606323 4.582676l0 0c0 2.5309448 -2.2209473 4.5826797 -4.9606323 4.5826797l0 0c-2.7396774 0 -4.9606247 -2.051735 -4.9606247 -4.5826797z" fill-rule="evenodd"/><path stroke="#000000" stroke-width="1.0" stroke-linejoin="round" stroke-linecap="butt" d="m70.45801 42.77034l0 0c0 -2.530941 2.2209473 -4.582676 4.9606247 -4.582676l0 0c2.739685 0 4.9606323 2.051735 4.9606323 4.582676l0 0c0 2.5309448 -2.2209473 4.5826797 -4.9606323 4.5826797l0 0c-2.7396774 0 -4.9606247 -2.051735 -4.9606247 -4.5826797z" fill-rule="evenodd"/><path fill="#000000" d="m80.379265 42.77034l0 0c0 -2.530941 2.2209473 -4.582676 4.9606323 -4.582676l0 0c2.7396774 0 4.9606247 2.051735 4.9606247 4.582676l0 0c0 2.5309448 -2.2209473 4.5826797 -4.9606247 4.5826797l0 0c-2.739685 0 -4.9606323 -2.051735 -4.9606323 -4.5826797z" fill-rule="evenodd"/><path stroke="#000000" stroke-width="1.0" stroke-linejoin="round" stroke-linecap="butt" d="m80.379265 42.77034l0 0c0 -2.530941 2.2209473 -4.582676 4.9606323 -4.582676l0 0c2.7396774 0 4.9606247 2.051735 4.9606247 4.582676l0 0c0 2.5309448 -2.2209473 4.5826797 -4.9606247 4.5826797l0 0c-2.739685 0 -4.9606323 -2.051735 -4.9606323 -4.5826797z" fill-rule="evenodd"/><path fill="#ead1dc" d="m69.502625 51.513123l23.748032 0l-11.874016 12.981628z" fill-rule="evenodd"/><path stroke="#000000" stroke-width="1.0" stroke-linejoin="round" stroke-linecap="butt" d="m69.502625 51.513123l23.748032 0l-11.874016 12.981628z" fill-rule="evenodd"/><path fill="#000000" fill-opacity="0.0" d="m81.37664 64.49475l-0.25196838 15.0866165" fill-rule="evenodd"/><path stroke="#000000" stroke-width="1.0" stroke-linejoin="round" stroke-linecap="butt" d="m81.37664 64.49475l-0.25196838 15.0866165" fill-rule="evenodd"/></g></svg>