<svg version="1.1" viewBox="0.0 0.0 182.01049868766404 174.31758530183728" fill="none" stroke="none" stroke-linecap="square" stroke-miterlimit="10" xmlns:xlink="http://www.w3.org/1999/xlink" xmlns="http://www.w3.org/2000/svg"><clipPath id="p.0"><path d="m0 0l182.0105 0l0 174.31758l-182.0105 0l0 -174.31758z" clip-rule="nonzero"/></clipPath><g clip-path="url(#p.0)"><path fill="#000000" fill-opacity="0.0" d="m0 0l182.0105 0l0 174.31758l-182.0105 0z" fill-rule="evenodd"/><defs><radialGradient id="p.1" gradientUnits="userSpaceOnUse" gradientTransform="matrix(4.515511462753965 6.4255635397477535 6.4255635397477535 -4.515511462753965 0.0 0.0)" spreadMethod="pad" cx="21.917709374102504" cy="5.417401559466293" fx="21.917709374102504" fy="5.417401559466293" r="6.425563335418701"><stop offset="0.0" stop-color="#696969"/><stop offset="1.0" stop-color="#1d1d1d"/></radialGradient></defs><path fill="url(#p.1)" d="m181.27103 99.30968l0 0c-8.471268 -12.054596 -33.169647 -9.304848 -55.16536 6.1417313c-21.99572 15.446579 -32.959457 37.740685 -24.48819 49.79528l0 0c4.5738907 -13.47261 16.48777 -27.877785 32.157486 -38.881897c15.669708 -11.004112 33.266296 -17.322784 47.496063 -17.055115z" fill-rule="evenodd"/><path stroke="#434343" stroke-width="1.0" stroke-linejoin="round" stroke-linecap="butt" d="m181.27103 99.30968l0 0c-8.471268 -12.054596 -33.169647 -9.304848 -55.16536 6.1417313c-21.99572 15.446579 -32.959457 37.740685 -24.48819 49.79528l0 0c4.5738907 -13.47261 16.48777 -27.877785 32.157486 -38.881897c15.669708 -11.004112 33.266296 -17.322784 47.496063 -17.055115z" fill-rule="evenodd"/><defs><radialGradient id="p.2" gradientUnits="userSpaceOnUse" gradientTransform="matrix(2.7703827551611826 -5.9956482720673785 -5.9956482720673785 -2.7703827551611826 0.0 0.0)" spreadMethod="pad" cx="-4.301364368590933" cy="-6.767298651820209" fx="-4.301364368590933" fy="-6.767298651820209" r="5.995648384094238"><stop offset="0.0" stop-color="#696969"/><stop offset="1.0" stop-color="#1d1d1d"/></radialGradient></defs><path fill="url(#p.2)" d="m13.791775 76.7107l0 0c8.8539505 4.0964737 22.687294 -6.9871216 30.897636 -24.755901q7.433071 -16.086617 14.866142 -32.17323q-8.015747 -3.708662 -16.031494 -7.417323l0 0c-8.8539505 -4.0964746 -22.687296 6.9871225 -30.897638 24.755905l0 0c-8.210344 17.768784 -7.6885967 35.494076 1.1653538 39.59055z" fill-rule="evenodd"/><path stroke="#434343" stroke-width="1.0" stroke-linejoin="round" stroke-linecap="butt" d="m13.791775 76.7107l0 0c8.8539505 4.0964737 22.687294 -6.9871216 30.897636 -24.755901q7.433071 -16.086617 14.866142 -32.17323q-8.015747 -3.708662 -16.031494 -7.417323l0 0c-8.8539505 -4.0964746 -22.687296 6.9871225 -30.897638 24.755905l0 0c-8.210344 17.768784 -7.6885967 35.494076 1.1653538 39.59055z" fill-rule="evenodd"/><defs><radialGradient id="p.3" gradientUnits="userSpaceOnUse" gradientTransform="matrix(-2.770382755209866 -5.995648272057214 5.995648272057214 -2.770382755209866 0.0 0.0)" spreadMethod="pad" cx="-14.10129359363153" cy="14.758091308287357" fx="-14.10129359363153" fy="14.758091308287357" r="5.995648384094238"><stop offset="0.0" stop-color="#696969"/><stop offset="1.0" stop-color="#1d1d1d"/></radialGradient></defs><path fill="url(#p.3)" d="m142.41644 75.83406l0 0c-8.853943 4.0964737 -22.687294 -6.9871216 -30.897636 -24.755901q-7.4330673 -16.086617 -14.866142 -32.17323q8.015755 -3.708662 16.031502 -7.417323l0 0c8.8539505 -4.0964746 22.687294 6.9871225 30.897636 24.755905l0 0c8.210342 17.768784 7.6885986 35.494076 -1.1653595 39.59055z" fill-rule="evenodd"/><path stroke="#434343" stroke-width="1.0" stroke-linejoin="round" stroke-linecap="butt" d="m142.41644 75.83406l0 0c-8.853943 4.0964737 -22.687294 -6.9871216 -30.897636 -24.755901q-7.4330673 -16.086617 -14.866142 -32.17323q8.015755 -3.708662 16.031502 -7.417323l0 0c8.8539505 -4.0964746 22.687294 6.9871225 30.897636 24.755905l0 0c8.210342 17.768784 7.6885986 35.494076 -1.1653595 39.59055z" fill-rule="evenodd"/><defs><radialGradient id="p.4" gradientUnits="userSpaceOnUse" gradientTransform="matrix(0.0 -8.279115167061942 8.279115167061942 0.0 0.0 0.0)" spreadMethod="pad" cx="-14.35053250119867" cy="9.681572731580886" fx="-14.35053250119867" fy="9.681572731580886" r="8.279114723205566"><stop offset="0.0" stop-color="#696969"/><stop offset="1.0" stop-color="#1d1d1d"/></radialGradient></defs><path fill="url(#p.4)" d="m34.989502 170.36876l0 -51.55905l0 0c0 -28.475273 20.221218 -51.55905 45.16535 -51.55905c24.944138 0 45.16536 23.083778 45.16536 51.55905l0 51.55905z" fill-rule="evenodd"/><path stroke="#434343" stroke-width="1.0" stroke-linejoin="round" stroke-linecap="butt" d="m34.989502 170.36876l0 -51.55905l0 0c0 -28.475273 20.221218 -51.55905 45.16535 -51.55905c24.944138 0 45.16536 23.083778 45.16536 51.55905l0 51.55905z" fill-rule="evenodd"/><defs><radialGradient id="p.5" gradientUnits="userSpaceOnUse" gradientTransform="matrix(8.220802919409016 0.0 0.0 8.220802919409016 0.0 0.0)" spreadMethod="pad" cx="9.610245833937777" cy="6.295883547526985" fx="9.610245833937777" fy="6.295883547526985" r="8.220803260803223"><stop offset="0.0" stop-color="#696969"/><stop offset="1.0" stop-color="#1d1d1d"/></radialGradient></defs><path fill="url(#p.5)" d="m31.240158 51.757217l0 0c0 -26.405298 21.384571 -47.811024 47.76378 -47.811024l0 0c12.66774 0 24.816643 5.0372186 33.774094 14.003525c8.957443 8.966307 13.989685 21.127228 13.989685 33.8075l0 0c0 26.405296 -21.384575 47.811028 -47.76378 47.811028l0 0c-26.379208 0 -47.76378 -21.405731 -47.76378 -47.811028z" fill-rule="evenodd"/><path stroke="#434343" stroke-width="1.0" stroke-linejoin="round" stroke-linecap="butt" d="m31.240158 51.757217l0 0c0 -26.405298 21.384571 -47.811024 47.76378 -47.811024l0 0c12.66774 0 24.816643 5.0372186 33.774094 14.003525c8.957443 8.966307 13.989685 21.127228 13.989685 33.8075l0 0c0 26.405296 -21.384575 47.811028 -47.76378 47.811028l0 0c-26.379208 0 -47.76378 -21.405731 -47.76378 -47.811028z" fill-rule="evenodd"/><path fill="#ffffff" d="m54.25853 40.48163l0 0c0 -6.583931 5.3161774 -11.921261 11.874016 -11.921261l0 0c3.1491852 0 6.169388 1.2559853 8.396194 3.4916573c2.2268143 2.2356682 3.4778214 5.267887 3.4778214 8.429604l0 0c0 6.583927 -5.3161774 11.921257 -11.874016 11.921257l0 0c-6.5578384 0 -11.874016 -5.33733 -11.874016 -11.921257z" fill-rule="evenodd"/><path stroke="#000000" stroke-width="1.0" stroke-linejoin="round" stroke-linecap="butt" d="m54.25853 40.48163l0 0c0 -6.583931 5.3161774 -11.921261 11.874016 -11.921261l0 0c3.1491852 0 6.169388 1.2559853 8.396194 3.4916573c2.2268143 2.2356682 3.4778214 5.267887 3.4778214 8.429604l0 0c0 6.583927 -5.3161774 11.921257 -11.874016 11.921257l0 0c-6.5578384 0 -11.874016 -5.33733 -11.874016 -11.921257z" fill-rule="evenodd"/><path fill="#ffffff" d="m78.65748 40.48163l0 0c0 -6.583931 5.3161774 -11.921261 11.874016 -11.921261l0 0c3.1491852 0 6.169388 1.2559853 8.396202 3.4916573c2.2268066 2.2356682 3.4778137 5.267887 3.4778137 8.429604l0 0c0 6.583927 -5.3161774 11.921257 -11.874016 11.921257l0 0c-6.5578384 0 -11.874016 -5.33733 -11.874016 -11.921257z" fill-rule="evenodd"/><path stroke="#000000" stroke-width="1.0" stroke-linejoin="round" stroke-linecap="butt" d="m78.65748 40.48163l0 0c0 -6.583931 5.3161774 -11.921261 11.874016 -11.921261l0 0c3.1491852 0 6.169388 1.2559853 8.396202 3.4916573c2.2268066 2.2356682 3.4778137 5.267887 3.4778137 8.429604l0 0c0 6.583927 -5.3161774 11.921257 -11.874016 11.921257l0 0c-6.5578384 0 -11.874016 -5.33733 -11.874016 -11.921257z" fill-rule="evenodd"/><path fill="#000000" d="m68.085304 43.660107l0 0c0 -2.5309448 2.2209473 -4.5826797 4.9606247 -4.5826797l0 0c2.739685 0 4.9606323 2.051735 4.9606323 4.5826797l0 0c0 2.530941 -2.2209473 4.582676 -4.9606323 4.582676l0 0c-2.7396774 0 -4.9606247 -2.051735 -4.9606247 -4.582676z" fill-rule="evenodd"/><path stroke="#000000" stroke-width="1.0" stroke-linejoin="round" stroke-linecap="butt" d="m68.085304 43.660107l0 0c0 -2.5309448 2.2209473 -4.5826797 4.9606247 -4.5826797l0 0c2.739685 0 4.9606323 2.051735 4.9606323 4.5826797l0 0c0 2.530941 -2.2209473 4.582676 -4.9606323 4.582676l0 0c-2.7396774 0 -4.9606247 -2.051735 -4.9606247 -4.582676z" fill-rule="evenodd"/><path fill="#000000" d="m78.00656 43.660107l0 0c0 -2.5309448 2.2209473 -4.5826797 4.9606323 -4.5826797l0 0c2.7396774 0 4.9606247 2.051735 4.9606247 4.5826797l0 0c0 2.530941 -2.2209473 4.582676 -4.9606247 4.582676l0 0c-2.739685 0 -4.9606323 -2.051735 -4.9606323 -4.582676z" fill-rule="evenodd"/><path stroke="#000000" stroke-width="1.0" stroke-linejoin="round" stroke-linecap="butt" d="m78.00656 43.660107l0 0c0 -2.5309448 2.2209473 -4.5826797 4.9606323 -4.5826797l0 0c2.7396774 0 4.9606247 2.051735 4.9606247 4.5826797l0 0c0 2.530941 -2.2209473 4.582676 -4.9606247 4.582676l0 0c-2.739685 0 -4.9606323 -2.051735 -4.9606323 -4.582676z" fill-rule="evenodd"/><path fill="#ffffff" d="m55.721786 81.13382l0 -14.3622055l0 0c0 -7.932026 10.7945175 -14.3622055 24.110237 -14.3622055c13.315712 0 24.110237 6.4301796 24.110237 14.3622055l0 14.3622055z" fill-rule="evenodd"/><path stroke="#ffffff" stroke-width="1.0" stroke-linejoin="round" stroke-linecap="butt" d="m55.721786 81.13382l0 -14.3622055l0 0c0 -7.932026 10.7945175 -14.3622055 24.110237 -14.3622055c13.315712 0 24.110237 6.4301796 24.110237 14.3622055l0 14.3622055z" fill-rule="evenodd"/><path fill="#ead1dc" d="m67.12992 52.402885l23.748032 0l-11.874016 12.981628z" fill-rule="evenodd"/><path stroke="#000000" stroke-width="1.0" stroke-linejoin="round" stroke-linecap="butt" d="m67.12992 52.402885l23.748032 0l-11.874016 12.981628z" fill-rule="evenodd"/><path fill="#ffffff" d="m59.55512 169.81496l0 -30.456696l0 0c0 -16.820763 8.707531 -30.456688 19.448818 -30.456688c10.741287 0 19.448822 13.635925 19.448822 30.456688l0 30.456696z" fill-rule="evenodd"/><path stroke="#ffffff" stroke-width="1.0" stroke-linejoin="round" stroke-linecap="butt" d="m59.55512 169.81496l0 -30.456696l0 0c0 -16.820763 8.707531 -30.456688 19.448818 -30.456688c10.741287 0 19.448822 13.635925 19.448822 30.456688l0 30.456696z" fill-rule="evenodd"/><defs><linearGradient id="p.6" gradientUnits="userSpaceOnUse" gradientTransform="matrix(-5.8998272624967845 -4.932856681212005 -4.932856681212005 5.8998272624967845 0.0 0.0)" spreadMethod="pad" x1="-19.330220999196325" y1="6.457532100451743" x2="-19.33024233016485" y2="12.357359362909968"><stop offset="0.0" stop-color="#696969"/><stop offset="1.0" stop-color="#1d1d1d"/></linearGradient></defs><path fill="url(#p.6)" d="m67.623314 150.84216l0.31495667 -29.30709l-14.22047 -11.889763l-0.62992096 58.614166z" fill-rule="evenodd"/><path stroke="#434343" stroke-width="1.0" stroke-linejoin="round" stroke-linecap="butt" d="m67.623314 150.84216l0.31495667 -29.30709l-14.22047 -11.889763l-0.62992096 58.614166z" fill-rule="evenodd"/><path fill="#ffffff" d="m49.58005 170.36876l0 -10.236206l0 0c0 -5.6533203 5.0553055 -10.236221 11.29134 -10.236221c6.2360306 0 11.291336 4.582901 11.291336 10.236221l0 10.236206z" fill-rule="evenodd"/><path stroke="#d9d9d9" stroke-width="1.0" stroke-linejoin="round" stroke-linecap="butt" d="m49.58005 170.36876l0 -10.236206l0 0c0 -5.6533203 5.0553055 -10.236221 11.29134 -10.236221c6.2360306 0 11.291336 4.582901 11.291336 10.236221l0 10.236206z" fill-rule="evenodd"/><defs><linearGradient id="p.7" gradientUnits="userSpaceOnUse" gradientTransform="matrix(5.916505805848454 -4.943929508844414 4.943929508844414 5.916505805848454 0.0 0.0)" spreadMethod="pad" x1="-3.3288980188643347" y1="19.857817324124387" x2="-3.328919627219018" y2="25.774323129933382"><stop offset="0.0" stop-color="#696969"/><stop offset="1.0" stop-color="#1d1d1d"/></linearGradient></defs><path fill="url(#p.7)" d="m93.11682 151.43996l0.33071136 -29.999992l14.944878 -12.48819l-0.6614151 59.999992z" fill-rule="evenodd"/><path stroke="#434343" stroke-width="1.0" stroke-linejoin="round" stroke-linecap="butt" d="m93.11682 151.43996l0.33071136 -29.999992l14.944878 -12.48819l-0.6614151 59.999992z" fill-rule="evenodd"/><path fill="#ffffff" d="m88.026245 170.36876l0 -10.236206l0 0c0 -5.6533203 5.0553055 -10.236221 11.291344 -10.236221c6.2360306 0 11.291336 4.582901 11.291336 10.236221l0 10.236206z" fill-rule="evenodd"/><path stroke="#d9d9d9" stroke-width="1.0" stroke-linejoin="round" stroke-linecap="butt" d="m88.026245 170.36876l0 -10.236206l0 0c0 -5.6533203 5.0553055 -10.236221 11.291344 -10.236221c6.2360306 0 11.291336 4.582901 11.291336 10.236221l0 10.236206z" fill-rule="evenodd"/><path fill="#ffffff" d="m55.720474 68.84121l0 11.81102l0 0c0 6.5230484 10.7945175 11.811028 24.110237 11.811028c13.315712 0 24.110237 -5.287979 24.110237 -11.811028l0 -11.81102z" fill-rule="evenodd"/><path stroke="#ffffff" stroke-width="1.0" stroke-linejoin="round" stroke-linecap="butt" d="m55.720474 68.84121l0 11.81102l0 0c0 6.5230484 10.7945175 11.811028 24.110237 11.811028c13.315712 0 24.110237 -5.287979 24.110237 -11.811028l0 -11.81102z" fill-rule="evenodd"/><path fill="#000000" fill-opacity="0.0" d="m79.00394 65.384514l-0.25196838 15.0866165" fill-rule="evenodd"/><path stroke="#000000" stroke-width="1.0" stroke-linejoin="round" stroke-linecap="butt" d="m79.00394 65.384514l-0.25196838 15.0866165" fill-rule="evenodd"/></g></svg>