<svg version="1.1" viewBox="0.0 0.0 136.1994750656168 177.0" fill="none" stroke="none" stroke-linecap="square" stroke-miterlimit="10" xmlns:xlink="http://www.w3.org/1999/xlink" xmlns="http://www.w3.org/2000/svg"><clipPath id="p.0"><path d="m0 0l136.19948 0l0 177.0l-136.19948 0l0 -177.0z" clip-rule="nonzero"/></clipPath><g clip-path="url(#p.0)"><path fill="#000000" fill-opacity="0.0" d="m0 0l136.19948 0l0 177.0l-136.19948 0z" fill-rule="evenodd"/><defs><radialGradient id="p.1" gradientUnits="userSpaceOnUse" gradientTransform="matrix(-8.280662229483637 -3.81756336659529 -3.81756336659529 8.280662229483637 0.0 0.0)" spreadMethod="pad" cx="-14.216701483223053" cy="3.6846011984192324" fx="-14.216701483223053" fy="3.6846011984192324" r="8.280662536621094"><stop offset="0.0" stop-color="#f9cb9c"/><stop offset="1.0" stop-color="#783f04"/></radialGradient></defs><path fill="url(#p.1)" d="m61.695538 147.29575l0 0c12.9417305 5.9664154 37.10425 -19.542778 53.968502 -56.97638c16.86425 -37.433598 20.04409 -72.61626 7.1023636 -78.58267l0 0c0.16728973 19.400948 -6.8048325 46.513477 -18.818893 73.1811c-12.014069 26.667625 -27.6678 49.77775 -42.251972 62.377953z" fill-rule="evenodd"/><path stroke="#c4925e" stroke-width="1.0" stroke-linejoin="round" stroke-linecap="butt" d="m61.695538 147.29575l0 0c12.9417305 5.9664154 37.10425 -19.542778 53.968502 -56.97638c16.86425 -37.433598 20.04409 -72.61626 7.1023636 -78.58267l0 0c0.16728973 19.400948 -6.8048325 46.513477 -18.818893 73.1811c-12.014069 26.667625 -27.6678 49.77775 -42.251972 62.377953z" fill-rule="evenodd"/><defs><radialGradient id="p.2" gradientUnits="userSpaceOnUse" gradientTransform="matrix(0.0 -8.15921839996295 8.15921839996295 0.0 0.0 0.0)" spreadMethod="pad" cx="-15.373815733446154" cy="6.690328022940231" fx="-15.373815733446154" fy="6.690328022940231" r="8.159218788146973"><stop offset="0.0" stop-color="#f9cb9c"/><stop offset="1.0" stop-color="#783f04"/></radialGradient></defs><path fill="url(#p.2)" d="m11.013044 175.76903l0 -50.330704l0 0c0 -27.79689 19.509104 -50.33071 43.574806 -50.33071c24.0657 0 43.574802 22.533821 43.574802 50.33071l0 50.330704z" fill-rule="evenodd"/><path stroke="#c4925e" stroke-width="1.0" stroke-linejoin="round" stroke-linecap="butt" d="m11.013044 175.76903l0 -50.330704l0 0c0 -27.79689 19.509104 -50.33071 43.574806 -50.33071c24.0657 0 43.574802 22.533821 43.574802 50.33071l0 50.330704z" fill-rule="evenodd"/><path fill="#ffffff" d="m13.626275 37.31496l0.07809162 -34.45669l39.764427 34.45669z" fill-rule="evenodd"/><path stroke="#c4925e" stroke-width="4.0" stroke-linejoin="round" stroke-linecap="butt" d="m13.626275 37.31496l0.07809162 -34.45669l39.764427 34.45669z" fill-rule="evenodd"/><path fill="#ffffff" d="m53.13461 37.31496l39.842518 -34.45669l0 34.45669z" fill-rule="evenodd"/><path stroke="#c4925e" stroke-width="4.0" stroke-linejoin="round" stroke-linecap="butt" d="m53.13461 37.31496l39.842518 -34.45669l0 34.45669z" fill-rule="evenodd"/><defs><radialGradient id="p.3" gradientUnits="userSpaceOnUse" gradientTransform="matrix(8.18702695684217 0.0 0.0 8.18702695684217 0.0 0.0)" spreadMethod="pad" cx="6.627218663598569" cy="7.252688072106735" fx="6.627218663598569" fy="7.252688072106735" r="8.187026977539062"><stop offset="0.0" stop-color="#696969"/><stop offset="1.0" stop-color="#1d1d1d"/></radialGradient></defs><path fill="url(#p.3)" d="m7.28084 59.377953l0 0c0 -26.4053 21.032042 -47.811024 46.97638 -47.811024l0 0c12.458908 0 24.40754 5.037218 33.217316 14.003525c8.809776 8.966305 13.759064 21.127228 13.759064 33.8075l0 0c0 26.405296 -21.032043 47.811028 -46.97638 47.811028l0 0c-25.944336 0 -46.97638 -21.405731 -46.97638 -47.811028z" fill-rule="evenodd"/><path stroke="#434343" stroke-width="1.0" stroke-linejoin="round" stroke-linecap="butt" d="m7.28084 59.377953l0 0c0 -26.4053 21.032042 -47.811024 46.97638 -47.811024l0 0c12.458908 0 24.40754 5.037218 33.217316 14.003525c8.809776 8.966305 13.759064 21.127228 13.759064 33.8075l0 0c0 26.405296 -21.032043 47.811028 -46.97638 47.811028l0 0c-25.944336 0 -46.97638 -21.405731 -46.97638 -47.811028z" fill-rule="evenodd"/><defs><radialGradient id="p.4" gradientUnits="userSpaceOnUse" gradientTransform="matrix(8.183597750724878 0.0 0.0 8.183597750724878 0.0 0.0)" spreadMethod="pad" cx="6.644107526821846" cy="7.266952517026906" fx="6.644107526821846" fy="7.266952517026906" r="8.183597564697266"><stop offset="0.0" stop-color="#f9cb9c"/><stop offset="1.0" stop-color="#783f04"/></radialGradient></defs><path fill="url(#p.4)" d="m7.3963256 59.46982l0 0c0 -26.361813 21.03204 -47.732285 46.97638 -47.732285l0 0c12.458908 0 24.407532 5.028922 33.217316 13.980462c8.809776 8.951538 13.759064 21.092434 13.759064 33.751823l0 0c0 26.361809 -21.032043 47.732285 -46.97638 47.732285l0 0c-25.944338 0 -46.97638 -21.370476 -46.97638 -47.732285z" fill-rule="evenodd"/><path stroke="#c4925e" stroke-width="1.0" stroke-linejoin="round" stroke-linecap="butt" d="m7.3963256 59.46982l0 0c0 -26.361813 21.03204 -47.732285 46.97638 -47.732285l0 0c12.458908 0 24.407532 5.028922 33.217316 13.980462c8.809776 8.951538 13.759064 21.092434 13.759064 33.751823l0 0c0 26.361809 -21.032043 47.732285 -46.97638 47.732285l0 0c-25.944338 0 -46.97638 -21.370476 -46.97638 -47.732285z" fill-rule="evenodd"/><path fill="#ffffff" d="m29.599699 48.980705l0 0c0 -6.4360733 5.13286 -11.653542 11.464567 -11.653542l0 0c3.0405922 0 5.95665 1.2277794 8.106674 3.4132423c2.1500206 2.185463 3.357891 5.1495895 3.357891 8.240299l0 0c0 6.436077 -5.132862 11.653545 -11.464565 11.653545l0 0c-6.331707 0 -11.464567 -5.2174683 -11.464567 -11.653545z" fill-rule="evenodd"/><path stroke="#000000" stroke-width="1.0" stroke-linejoin="round" stroke-linecap="butt" d="m29.599699 48.980705l0 0c0 -6.4360733 5.13286 -11.653542 11.464567 -11.653542l0 0c3.0405922 0 5.95665 1.2277794 8.106674 3.4132423c2.1500206 2.185463 3.357891 5.1495895 3.357891 8.240299l0 0c0 6.436077 -5.132862 11.653545 -11.464565 11.653545l0 0c-6.331707 0 -11.464567 -5.2174683 -11.464567 -11.653545z" fill-rule="evenodd"/><path fill="#ffffff" d="m53.13461 48.980705l0 0c0 -6.4360733 5.1328583 -11.653542 11.464565 -11.653542l0 0c3.040596 0 5.95665 1.2277794 8.106674 3.4132423c2.1500244 2.185463 3.357895 5.1495895 3.357895 8.240299l0 0c0 6.436077 -5.132866 11.653545 -11.464569 11.653545l0 0c-6.331707 0 -11.464565 -5.2174683 -11.464565 -11.653545z" fill-rule="evenodd"/><path stroke="#000000" stroke-width="1.0" stroke-linejoin="round" stroke-linecap="butt" d="m53.13461 48.980705l0 0c0 -6.4360733 5.1328583 -11.653542 11.464565 -11.653542l0 0c3.040596 0 5.95665 1.2277794 8.106674 3.4132423c2.1500244 2.185463 3.357895 5.1495895 3.357895 8.240299l0 0c0 6.436077 -5.132866 11.653545 -11.464569 11.653545l0 0c-6.331707 0 -11.464565 -5.2174683 -11.464565 -11.653545z" fill-rule="evenodd"/><path fill="#000000" d="m42.93682 52.082737l0 0c0 -2.478756 2.1433945 -4.4881897 4.787403 -4.4881897l0 0c2.6440086 0 4.787403 2.0094337 4.787403 4.4881897l0 0c0 2.4787598 -2.1433945 4.4881897 -4.787403 4.4881897l0 0c-2.6440086 0 -4.787403 -2.00943 -4.787403 -4.4881897z" fill-rule="evenodd"/><path stroke="#000000" stroke-width="1.0" stroke-linejoin="round" stroke-linecap="butt" d="m42.93682 52.082737l0 0c0 -2.478756 2.1433945 -4.4881897 4.787403 -4.4881897l0 0c2.6440086 0 4.787403 2.0094337 4.787403 4.4881897l0 0c0 2.4787598 -2.1433945 4.4881897 -4.787403 4.4881897l0 0c-2.6440086 0 -4.787403 -2.00943 -4.787403 -4.4881897z" fill-rule="evenodd"/><path fill="#000000" d="m52.50674 52.082737l0 0c0 -2.478756 2.1433907 -4.4881897 4.7873993 -4.4881897l0 0c2.6440125 0 4.787403 2.0094337 4.787403 4.4881897l0 0c0 2.4787598 -2.1433907 4.4881897 -4.787403 4.4881897l0 0c-2.6440086 0 -4.7873993 -2.00943 -4.7873993 -4.4881897z" fill-rule="evenodd"/><path stroke="#000000" stroke-width="1.0" stroke-linejoin="round" stroke-linecap="butt" d="m52.50674 52.082737l0 0c0 -2.478756 2.1433907 -4.4881897 4.7873993 -4.4881897l0 0c2.6440125 0 4.787403 2.0094337 4.787403 4.4881897l0 0c0 2.4787598 -2.1433907 4.4881897 -4.787403 4.4881897l0 0c-2.6440086 0 -4.7873993 -2.00943 -4.7873993 -4.4881897z" fill-rule="evenodd"/><path fill="#ffffff" d="m31.009869 89.4846l0 -14.440941l0 0c0 -7.9755173 10.406734 -14.4409485 23.244095 -14.4409485c12.83736 0 23.244091 6.465431 23.244091 14.4409485l0 14.440941z" fill-rule="evenodd"/><path stroke="#ffffff" stroke-width="1.0" stroke-linejoin="round" stroke-linecap="butt" d="m31.009869 89.4846l0 -14.440941l0 0c0 -7.9755173 10.406734 -14.4409485 23.244095 -14.4409485c12.83736 0 23.244091 6.465431 23.244091 14.4409485l0 14.440941z" fill-rule="evenodd"/><path fill="#ead1dc" d="m42.015274 60.60366l22.907043 0l-11.453522 12.673447z" fill-rule="evenodd"/><path stroke="#000000" stroke-width="1.0" stroke-linejoin="round" stroke-linecap="butt" d="m42.015274 60.60366l22.907043 0l-11.453522 12.673447z" fill-rule="evenodd"/><path fill="#ffffff" d="m35.088478 175.23093l0 -29.732285l0 0c0 -16.420685 8.397305 -29.732277 18.755905 -29.732277c10.358597 0 18.755905 13.311592 18.755905 29.732277l0 29.732285z" fill-rule="evenodd"/><path stroke="#ffffff" stroke-width="1.0" stroke-linejoin="round" stroke-linecap="butt" d="m35.088478 175.23093l0 -29.732285l0 0c0 -16.420685 8.397305 -29.732277 18.755905 -29.732277c10.358597 0 18.755905 13.311592 18.755905 29.732277l0 29.732285z" fill-rule="evenodd"/><defs><radialGradient id="p.5" gradientUnits="userSpaceOnUse" gradientTransform="matrix(-4.67382499214933 -3.9601410380036497 -3.9601410380036497 4.67382499214933 0.0 0.0)" spreadMethod="pad" cx="-18.893045258408744" cy="15.034549298022945" fx="-18.893045258408744" fy="15.034549298022945" r="4.673824787139893"><stop offset="0.0" stop-color="#f9cb9c"/><stop offset="1.0" stop-color="#783f04"/></radialGradient></defs><path fill="url(#p.5)" d="m42.48039 156.71002l0.31496048 -28.629913l-13.716537 -11.622055l-0.62992096 57.259842z" fill-rule="evenodd"/><path stroke="#c4925e" stroke-width="1.0" stroke-linejoin="round" stroke-linecap="butt" d="m42.48039 156.71002l0.31496048 -28.629913l-13.716537 -11.622055l-0.62992096 57.259842z" fill-rule="evenodd"/><path fill="#ffffff" d="m25.086899 175.76903l0 -9.984253l0 0c0 -5.514145 4.8719883 -9.984253 10.881889 -9.984253c6.009903 0 10.881889 4.470108 10.881889 9.984253l0 9.984253z" fill-rule="evenodd"/><path stroke="#d9d9d9" stroke-width="1.0" stroke-linejoin="round" stroke-linecap="butt" d="m25.086899 175.76903l0 -9.984253l0 0c0 -5.514145 4.8719883 -9.984253 10.881889 -9.984253c6.009903 0 10.881889 4.470108 10.881889 9.984253l0 9.984253z" fill-rule="evenodd"/><defs><radialGradient id="p.6" gradientUnits="userSpaceOnUse" gradientTransform="matrix(4.7291310659247525 -4.00037972149991 4.00037972149991 4.7291310659247525 0.0 0.0)" spreadMethod="pad" cx="-5.085254419041207" cy="26.382003290674408" fx="-5.085254419041207" fy="26.382003290674408" r="4.72913122177124"><stop offset="0.0" stop-color="#f9cb9c"/><stop offset="1.0" stop-color="#783f04"/></radialGradient></defs><path fill="url(#p.6)" d="m67.07975 157.29588l0.31495667 -29.291351l14.409447 -12.188972l-0.62992096 58.58268z" fill-rule="evenodd"/><path stroke="#c4925e" stroke-width="1.0" stroke-linejoin="round" stroke-linecap="butt" d="m67.07975 157.29588l0.31495667 -29.291351l14.409447 -12.188972l-0.62992096 58.58268z" fill-rule="evenodd"/><path fill="#ffffff" d="m62.171597 175.76903l0 -9.984253l0 0c0 -5.514145 4.87199 -9.984253 10.881893 -9.984253c6.009903 0 10.881889 4.470108 10.881889 9.984253l0 9.984253z" fill-rule="evenodd"/><path stroke="#d9d9d9" stroke-width="1.0" stroke-linejoin="round" stroke-linecap="butt" d="m62.171597 175.76903l0 -9.984253l0 0c0 -5.514145 4.87199 -9.984253 10.881893 -9.984253c6.009903 0 10.881889 4.470108 10.881889 9.984253l0 9.984253z" fill-rule="evenodd"/><path fill="#ffffff" d="m31.009869 76.65173l0 11.543312l0 0c0 6.3751907 10.406734 11.543304 23.244095 11.543304c12.83736 0 23.244091 -5.1681137 23.244091 -11.543304l0 -11.543312z" fill-rule="evenodd"/><path stroke="#ffffff" stroke-width="1.0" stroke-linejoin="round" stroke-linecap="butt" d="m31.009869 76.65173l0 11.543312l0 0c0 6.3751907 10.406734 11.543304 23.244095 11.543304c12.83736 0 23.244091 -5.1681137 23.244091 -11.543304l0 -11.543312z" fill-rule="evenodd"/><path fill="#000000" fill-opacity="0.0" d="m53.468796 73.27711l-0.25196838 14.740158" fill-rule="evenodd"/><path stroke="#000000" stroke-width="1.0" stroke-linejoin="round" stroke-linecap="butt" d="m53.468796 73.27711l-0.25196838 14.740158" fill-rule="evenodd"/></g></svg>