<svg version="1.1" viewBox="0.0 0.0 136.1994750656168 177.0" fill="none" stroke="none" stroke-linecap="square" stroke-miterlimit="10" xmlns:xlink="http://www.w3.org/1999/xlink" xmlns="http://www.w3.org/2000/svg"><clipPath id="p.0"><path d="m0 0l136.19948 0l0 177.0l-136.19948 0l0 -177.0z" clip-rule="nonzero"/></clipPath><g clip-path="url(#p.0)"><path fill="#000000" fill-opacity="0.0" d="m0 0l136.19948 0l0 177.0l-136.19948 0z" fill-rule="evenodd"/><defs><radialGradient id="p.1" gradientUnits="userSpaceOnUse" gradientTransform="matrix(-8.394013700102732 -3.832286410339555 -3.832286410339555 8.394013700102732 0.0 0.0)" spreadMethod="pad" cx="-14.254513120170232" cy="3.3845506821672453" fx="-14.254513120170232" fy="3.3845506821672453" r="8.394013404846191"><stop offset="0.0" stop-color="#696969"/><stop offset="1.0" stop-color="#1d1d1d"/></radialGradient></defs><path fill="url(#p.1)" d="m62.902832 146.9187l0 0c13.411385 6.1229706 38.45524 -19.992577 55.93701 -58.330704c17.481766 -38.338127 20.781464 -74.38097 7.3700714 -80.50394l0 0c0.17101288 19.8768 -7.057831 47.648617 -19.51181 74.96063c-12.4539795 27.312012 -28.67949 50.976395 -43.795273 63.87401z" fill-rule="evenodd"/><path stroke="#434343" stroke-width="1.0" stroke-linejoin="round" stroke-linecap="butt" d="m62.902832 146.9187l0 0c13.411385 6.1229706 38.45524 -19.992577 55.93701 -58.330704c17.481766 -38.338127 20.781464 -74.38097 7.3700714 -80.50394l0 0c0.17101288 19.8768 -7.057831 47.648617 -19.51181 74.96063c-12.4539795 27.312012 -28.67949 50.976395 -43.795273 63.87401z" fill-rule="evenodd"/><defs><radialGradient id="p.2" gradientUnits="userSpaceOnUse" gradientTransform="matrix(0.0 -8.279115167061942 8.279115167061942 0.0 0.0 0.0)" spreadMethod="pad" cx="-15.045922978513666" cy="6.70472450637559" fx="-15.045922978513666" fy="6.70472450637559" r="8.279114723205566"><stop offset="0.0" stop-color="#696969"/><stop offset="1.0" stop-color="#1d1d1d"/></radialGradient></defs><path fill="url(#p.2)" d="m10.343832 176.12599l0 -51.55906l0 0c0 -28.47528 20.221218 -51.55906 45.16535 -51.55906c24.944138 0 45.16535 23.083778 45.16535 51.55906l0 51.55906z" fill-rule="evenodd"/><path stroke="#434343" stroke-width="1.0" stroke-linejoin="round" stroke-linecap="butt" d="m10.343832 176.12599l0 -51.55906l0 0c0 -28.47528 20.221218 -51.55906 45.16535 -51.55906c24.944138 0 45.16535 23.083778 45.16535 51.55906l0 51.55906z" fill-rule="evenodd"/><defs><radialGradient id="p.3" gradientUnits="userSpaceOnUse" gradientTransform="matrix(5.21307248299182 0.0 0.0 5.21307248299182 0.0 0.0)" spreadMethod="pad" cx="6.272339937021761" cy="3.554057442240858" fx="6.272339937021761" fy="3.554057442240858" r="5.213072299957275"><stop offset="0.0" stop-color="#696969"/><stop offset="1.0" stop-color="#1d1d1d"/></radialGradient></defs><path fill="url(#p.3)" d="m12.036745 36.181103l0.0809927 -35.307087l41.241844 35.307087z" fill-rule="evenodd"/><path stroke="#434343" stroke-width="1.0" stroke-linejoin="round" stroke-linecap="butt" d="m12.036745 36.181103l0.0809927 -35.307087l41.241844 35.307087z" fill-rule="evenodd"/><defs><radialGradient id="p.4" gradientUnits="userSpaceOnUse" gradientTransform="matrix(5.21307248299182 0.0 0.0 5.21307248299182 0.0 0.0)" spreadMethod="pad" cx="14.323974250142005" cy="3.554057442240858" fx="14.323974250142005" fy="3.554057442240858" r="5.213072299957275"><stop offset="0.0" stop-color="#696969"/><stop offset="1.0" stop-color="#1d1d1d"/></radialGradient></defs><path fill="url(#p.4)" d="m54.010498 36.181103l41.322838 -35.307087l0 35.307087z" fill-rule="evenodd"/><path stroke="#434343" stroke-width="1.0" stroke-linejoin="round" stroke-linecap="butt" d="m54.010498 36.181103l41.322838 -35.307087l0 35.307087z" fill-rule="evenodd"/><defs><radialGradient id="p.5" gradientUnits="userSpaceOnUse" gradientTransform="matrix(8.220802919409016 0.0 0.0 8.220802919409016 0.0 0.0)" spreadMethod="pad" cx="6.612122430552695" cy="7.222889702867872" fx="6.612122430552695" fy="7.222889702867872" r="8.220803260803223"><stop offset="0.0" stop-color="#696969"/><stop offset="1.0" stop-color="#1d1d1d"/></radialGradient></defs><path fill="url(#p.5)" d="m6.593176 59.377953l0 0c0 -26.4053 21.384573 -47.811024 47.76378 -47.811024l0 0c12.66774 0 24.816643 5.037218 33.774094 14.003525c8.957443 8.966305 13.989685 21.127228 13.989685 33.8075l0 0c0 26.405296 -21.384575 47.811028 -47.76378 47.811028l0 0c-26.379208 0 -47.76378 -21.405731 -47.76378 -47.811028z" fill-rule="evenodd"/><path stroke="#434343" stroke-width="1.0" stroke-linejoin="round" stroke-linecap="butt" d="m6.593176 59.377953l0 0c0 -26.4053 21.384573 -47.811024 47.76378 -47.811024l0 0c12.66774 0 24.816643 5.037218 33.774094 14.003525c8.957443 8.966305 13.989685 21.127228 13.989685 33.8075l0 0c0 26.405296 -21.384575 47.811028 -47.76378 47.811028l0 0c-26.379208 0 -47.76378 -21.405731 -47.76378 -47.811028z" fill-rule="evenodd"/><path fill="#ffffff" d="m29.61155 48.102364l0 0c0 -6.583931 5.3161774 -11.921261 11.874016 -11.921261l0 0c3.1491852 0 6.169388 1.2559853 8.396194 3.4916573c2.2268105 2.2356682 3.4778214 5.267887 3.4778214 8.429604l0 0c0 6.583927 -5.3161774 11.921257 -11.874016 11.921257l0 0c-6.5578384 0 -11.874016 -5.33733 -11.874016 -11.921257z" fill-rule="evenodd"/><path stroke="#000000" stroke-width="1.0" stroke-linejoin="round" stroke-linecap="butt" d="m29.61155 48.102364l0 0c0 -6.583931 5.3161774 -11.921261 11.874016 -11.921261l0 0c3.1491852 0 6.169388 1.2559853 8.396194 3.4916573c2.2268105 2.2356682 3.4778214 5.267887 3.4778214 8.429604l0 0c0 6.583927 -5.3161774 11.921257 -11.874016 11.921257l0 0c-6.5578384 0 -11.874016 -5.33733 -11.874016 -11.921257z" fill-rule="evenodd"/><path fill="#ffffff" d="m54.010498 48.102364l0 0c0 -6.583931 5.3161774 -11.921261 11.874016 -11.921261l0 0c3.1491852 0 6.169388 1.2559853 8.396194 3.4916573c2.2268143 2.2356682 3.4778214 5.267887 3.4778214 8.429604l0 0c0 6.583927 -5.3161774 11.921257 -11.874016 11.921257l0 0c-6.5578384 0 -11.874016 -5.33733 -11.874016 -11.921257z" fill-rule="evenodd"/><path stroke="#000000" stroke-width="1.0" stroke-linejoin="round" stroke-linecap="butt" d="m54.010498 48.102364l0 0c0 -6.583931 5.3161774 -11.921261 11.874016 -11.921261l0 0c3.1491852 0 6.169388 1.2559853 8.396194 3.4916573c2.2268143 2.2356682 3.4778214 5.267887 3.4778214 8.429604l0 0c0 6.583927 -5.3161774 11.921257 -11.874016 11.921257l0 0c-6.5578384 0 -11.874016 -5.33733 -11.874016 -11.921257z" fill-rule="evenodd"/><path fill="#000000" d="m43.43832 51.280838l0 0c0 -2.530941 2.220951 -4.582676 4.9606285 -4.582676l0 0c2.7396812 0 4.9606323 2.051735 4.9606323 4.582676l0 0c0 2.5309448 -2.220951 4.5826797 -4.9606323 4.5826797l0 0c-2.7396774 0 -4.9606285 -2.051735 -4.9606285 -4.5826797z" fill-rule="evenodd"/><path stroke="#000000" stroke-width="1.0" stroke-linejoin="round" stroke-linecap="butt" d="m43.43832 51.280838l0 0c0 -2.530941 2.220951 -4.582676 4.9606285 -4.582676l0 0c2.7396812 0 4.9606323 2.051735 4.9606323 4.582676l0 0c0 2.5309448 -2.220951 4.5826797 -4.9606323 4.5826797l0 0c-2.7396774 0 -4.9606285 -2.051735 -4.9606285 -4.5826797z" fill-rule="evenodd"/><path fill="#000000" d="m53.35958 51.280838l0 0c0 -2.530941 2.2209473 -4.582676 4.9606285 -4.582676l0 0c2.7396812 0 4.9606285 2.051735 4.9606285 4.582676l0 0c0 2.5309448 -2.2209473 4.5826797 -4.9606285 4.5826797l0 0c-2.7396812 0 -4.9606285 -2.051735 -4.9606285 -4.5826797z" fill-rule="evenodd"/><path stroke="#000000" stroke-width="1.0" stroke-linejoin="round" stroke-linecap="butt" d="m53.35958 51.280838l0 0c0 -2.530941 2.2209473 -4.582676 4.9606285 -4.582676l0 0c2.7396812 0 4.9606285 2.051735 4.9606285 4.582676l0 0c0 2.5309448 -2.2209473 4.5826797 -4.9606285 4.5826797l0 0c-2.7396812 0 -4.9606285 -2.051735 -4.9606285 -4.5826797z" fill-rule="evenodd"/><path fill="#ead1dc" d="m42.48294 60.02362l23.748032 0l-11.874016 12.981628z" fill-rule="evenodd"/><path stroke="#000000" stroke-width="1.0" stroke-linejoin="round" stroke-linecap="butt" d="m42.48294 60.02362l23.748032 0l-11.874016 12.981628z" fill-rule="evenodd"/><path fill="#000000" fill-opacity="0.0" d="m54.356956 73.00525l-0.25196838 15.0866165" fill-rule="evenodd"/><path stroke="#000000" stroke-width="1.0" stroke-linejoin="round" stroke-linecap="butt" d="m54.356956 73.00525l-0.25196838 15.0866165" fill-rule="evenodd"/><defs><radialGradient id="p.6" gradientUnits="userSpaceOnUse" gradientTransform="matrix(4.798142072316518 -4.009406389072532 4.009406389072532 4.798142072316518 0.0 0.0)" spreadMethod="pad" cx="-4.602727386539281" cy="26.313265438485914" fx="-4.602727386539281" fy="26.313265438485914" r="4.798141956329346"><stop offset="0.0" stop-color="#696969"/><stop offset="1.0" stop-color="#1d1d1d"/></radialGradient></defs><path fill="url(#p.6)" d="m68.47115 157.19717l0.33071136 -29.999992l14.944878 -12.48819l-0.6614151 59.999992z" fill-rule="evenodd"/><path stroke="#434343" stroke-width="1.0" stroke-linejoin="round" stroke-linecap="butt" d="m68.47115 157.19717l0.33071136 -29.999992l14.944878 -12.48819l-0.6614151 59.999992z" fill-rule="evenodd"/><defs><radialGradient id="p.7" gradientUnits="userSpaceOnUse" gradientTransform="matrix(-4.741833195772687 -3.964655661979717 -3.964655661979717 4.741833195772687 0.0 0.0)" spreadMethod="pad" cx="-18.5869340898057" cy="14.977081175809639" fx="-18.5869340898057" fy="14.977081175809639" r="4.741833209991455"><stop offset="0.0" stop-color="#696969"/><stop offset="1.0" stop-color="#1d1d1d"/></radialGradient></defs><path fill="url(#p.7)" d="m42.977642 156.59938l0.3149643 -29.30709l-14.220474 -11.889763l-0.62992096 58.61418z" fill-rule="evenodd"/><path stroke="#434343" stroke-width="1.0" stroke-linejoin="round" stroke-linecap="butt" d="m42.977642 156.59938l0.3149643 -29.30709l-14.220474 -11.889763l-0.62992096 58.61418z" fill-rule="evenodd"/><defs><radialGradient id="p.8" gradientUnits="userSpaceOnUse" gradientTransform="matrix(0.0 -3.90391547694095 3.90391547694095 0.0 0.0 0.0)" spreadMethod="pad" cx="-42.49317505959845" cy="19.127441782886777" fx="-42.49317505959845" fy="19.127441782886777" r="3.9039154052734375"><stop offset="0.0" stop-color="#696969"/><stop offset="1.0" stop-color="#1d1d1d"/></radialGradient></defs><path fill="url(#p.8)" d="m63.380577 176.12599l0 -10.236221l0 0c0 -5.6533203 5.0553055 -10.236221 11.291336 -10.236221c6.236038 0 11.291344 4.582901 11.291344 10.236221l0 10.236221z" fill-rule="evenodd"/><path stroke="#434343" stroke-width="1.0" stroke-linejoin="round" stroke-linecap="butt" d="m63.380577 176.12599l0 -10.236221l0 0c0 -5.6533203 5.0553055 -10.236221 11.291336 -10.236221c6.236038 0 11.291344 4.582901 11.291344 10.236221l0 10.236221z" fill-rule="evenodd"/><defs><radialGradient id="p.9" gradientUnits="userSpaceOnUse" gradientTransform="matrix(0.0 -3.90391547694095 3.90391547694095 0.0 0.0 0.0)" spreadMethod="pad" cx="-42.49317505959845" cy="9.279330456499238" fx="-42.49317505959845" fy="9.279330456499238" r="3.9039154052734375"><stop offset="0.0" stop-color="#696969"/><stop offset="1.0" stop-color="#1d1d1d"/></radialGradient></defs><path fill="url(#p.9)" d="m24.934383 176.12599l0 -10.236221l0 0c0 -5.6533203 5.0553036 -10.236221 11.29134 -10.236221c6.2360344 0 11.291336 4.582901 11.291336 10.236221l0 10.236221z" fill-rule="evenodd"/><path stroke="#434343" stroke-width="1.0" stroke-linejoin="round" stroke-linecap="butt" d="m24.934383 176.12599l0 -10.236221l0 0c0 -5.6533203 5.0553036 -10.236221 11.29134 -10.236221c6.2360344 0 11.291336 4.582901 11.291336 10.236221l0 10.236221z" fill-rule="evenodd"/></g></svg>