<svg version="1.1" viewBox="0.0 0.0 150.1994750656168 143.3989501312336" fill="none" stroke="none" stroke-linecap="square" stroke-miterlimit="10" xmlns:xlink="http://www.w3.org/1999/xlink" xmlns="http://www.w3.org/2000/svg"><clipPath id="p.0"><path d="m0 0l150.19948 0l0 143.39896l-150.19948 0l0 -143.39896z" clip-rule="nonzero"/></clipPath><g clip-path="url(#p.0)"><path fill="#000000" fill-opacity="0.0" d="m0 0l150.19948 0l0 143.39896l-150.19948 0z" fill-rule="evenodd"/><path fill="#ead1dc" d="m63.225723 73.8727l23.748032 0l-11.874016 12.981628z" fill-rule="evenodd"/><path stroke="#000000" stroke-width="1.0" stroke-linejoin="round" stroke-linecap="butt" d="m63.225723 73.8727l23.748032 0l-11.874016 12.981628z" fill-rule="evenodd"/><path fill="#000000" fill-opacity="0.0" d="m75.09974 86.85433l-0.25196838 15.0866165" fill-rule="evenodd"/><path stroke="#000000" stroke-width="1.0" stroke-linejoin="round" stroke-linecap="butt" d="m75.09974 86.85433l-0.25196838 15.0866165" fill-rule="evenodd"/><path fill="#ffffff" d="m50.354332 61.951443l0 0c0 -6.583931 5.3161774 -11.921261 11.874016 -11.921261l0 0c3.1491852 0 6.169388 1.2559891 8.396194 3.4916573c2.2268143 2.235672 3.4778214 5.267891 3.4778214 8.429604l0 0c0 6.583927 -5.3161774 11.921261 -11.874016 11.921261l0 0c-6.5578384 0 -11.874016 -5.3373337 -11.874016 -11.921261z" fill-rule="evenodd"/><path stroke="#000000" stroke-width="1.0" stroke-linejoin="round" stroke-linecap="butt" d="m50.354332 61.951443l0 0c0 -6.583931 5.3161774 -11.921261 11.874016 -11.921261l0 0c3.1491852 0 6.169388 1.2559891 8.396194 3.4916573c2.2268143 2.235672 3.4778214 5.267891 3.4778214 8.429604l0 0c0 6.583927 -5.3161774 11.921261 -11.874016 11.921261l0 0c-6.5578384 0 -11.874016 -5.3373337 -11.874016 -11.921261z" fill-rule="evenodd"/><path fill="#ffffff" d="m74.75328 61.951443l0 0c0 -6.583931 5.3161774 -11.921261 11.874016 -11.921261l0 0c3.1491852 0 6.169388 1.2559891 8.396194 3.4916573c2.2268143 2.235672 3.4778214 5.267891 3.4778214 8.429604l0 0c0 6.583927 -5.3161774 11.921261 -11.874016 11.921261l0 0c-6.5578384 0 -11.874016 -5.3373337 -11.874016 -11.921261z" fill-rule="evenodd"/><path stroke="#000000" stroke-width="1.0" stroke-linejoin="round" stroke-linecap="butt" d="m74.75328 61.951443l0 0c0 -6.583931 5.3161774 -11.921261 11.874016 -11.921261l0 0c3.1491852 0 6.169388 1.2559891 8.396194 3.4916573c2.2268143 2.235672 3.4778214 5.267891 3.4778214 8.429604l0 0c0 6.583927 -5.3161774 11.921261 -11.874016 11.921261l0 0c-6.5578384 0 -11.874016 -5.3373337 -11.874016 -11.921261z" fill-rule="evenodd"/><path fill="#000000" d="m64.1811 65.12992l0 0c0 -2.530941 2.220955 -4.582676 4.9606323 -4.582676l0 0c2.739685 0 4.9606323 2.051735 4.9606323 4.582676l0 0c0 2.5309448 -2.2209473 4.5826797 -4.9606323 4.5826797l0 0c-2.7396774 0 -4.9606323 -2.051735 -4.9606323 -4.5826797z" fill-rule="evenodd"/><path stroke="#000000" stroke-width="1.0" stroke-linejoin="round" stroke-linecap="butt" d="m64.1811 65.12992l0 0c0 -2.530941 2.220955 -4.582676 4.9606323 -4.582676l0 0c2.739685 0 4.9606323 2.051735 4.9606323 4.582676l0 0c0 2.5309448 -2.2209473 4.5826797 -4.9606323 4.5826797l0 0c-2.7396774 0 -4.9606323 -2.051735 -4.9606323 -4.5826797z" fill-rule="evenodd"/><path fill="#000000" d="m74.10236 65.12992l0 0c0 -2.530941 2.2209473 -4.582676 4.9606323 -4.582676l0 0c2.7396774 0 4.9606247 2.051735 4.9606247 4.582676l0 0c0 2.5309448 -2.2209473 4.5826797 -4.9606247 4.5826797l0 0c-2.739685 0 -4.9606323 -2.051735 -4.9606323 -4.5826797z" fill-rule="evenodd"/><path stroke="#000000" stroke-width="1.0" stroke-linejoin="round" stroke-linecap="butt" d="m74.10236 65.12992l0 0c0 -2.530941 2.2209473 -4.582676 4.9606323 -4.582676l0 0c2.7396774 0 4.9606247 2.051735 4.9606247 4.582676l0 0c0 2.5309448 -2.2209473 4.5826797 -4.9606247 4.5826797l0 0c-2.739685 0 -4.9606323 -2.051735 -4.9606323 -4.5826797z" fill-rule="evenodd"/><path fill="#ead1dc" d="m63.50525 74.04724l23.748032 0l-11.874016 12.981628z" fill-rule="evenodd"/><path stroke="#000000" stroke-width="1.0" stroke-linejoin="round" stroke-linecap="butt" d="m63.50525 74.04724l23.748032 0l-11.874016 12.981628z" fill-rule="evenodd"/><path fill="#000000" fill-opacity="0.0" d="m75.379265 87.02887l-0.25196838 15.0866165" fill-rule="evenodd"/><path stroke="#000000" stroke-width="1.0" stroke-linejoin="round" stroke-linecap="butt" d="m75.379265 87.02887l-0.25196838 15.0866165" fill-rule="evenodd"/><defs><radialGradient id="p.1" gradientUnits="userSpaceOnUse" gradientTransform="matrix(5.21307248299182 0.0 0.0 5.21307248299182 0.0 0.0)" spreadMethod="pad" cx="10.251081817926758" cy="6.210915513172294" fx="10.251081817926758" fy="6.210915513172294" r="5.213072299957275"><stop offset="0.0" stop-color="#d4e5f5"/><stop offset="1.0" stop-color="#70a4d5"/></radialGradient></defs><path fill="url(#p.1)" d="m32.778214 50.031498l0.08099365 -35.30709l41.241844 35.30709z" fill-rule="evenodd"/><path stroke="#9fc5e8" stroke-width="1.0" stroke-linejoin="round" stroke-linecap="butt" d="m32.778214 50.031498l0.08099365 -35.30709l41.241844 35.30709z" fill-rule="evenodd"/><defs><radialGradient id="p.2" gradientUnits="userSpaceOnUse" gradientTransform="matrix(5.21307248299182 0.0 0.0 5.21307248299182 0.0 0.0)" spreadMethod="pad" cx="18.302716131047003" cy="6.210915513172294" fx="18.302716131047003" fy="6.210915513172294" r="5.213072299957275"><stop offset="0.0" stop-color="#d4e5f5"/><stop offset="1.0" stop-color="#70a4d5"/></radialGradient></defs><path fill="url(#p.2)" d="m74.75197 50.031498l41.322838 -35.30709l0 35.30709z" fill-rule="evenodd"/><path stroke="#9fc5e8" stroke-width="1.0" stroke-linejoin="round" stroke-linecap="butt" d="m74.75197 50.031498l41.322838 -35.30709l0 35.30709z" fill-rule="evenodd"/><defs><radialGradient id="p.3" gradientUnits="userSpaceOnUse" gradientTransform="matrix(8.220802919409016 0.0 0.0 8.220802919409016 0.0 0.0)" spreadMethod="pad" cx="9.135169147474116" cy="8.907687871193636" fx="9.135169147474116" fy="8.907687871193636" r="8.220803260803223"><stop offset="0.0" stop-color="#d4e5f5"/><stop offset="1.0" stop-color="#70a4d5"/></radialGradient></defs><path fill="url(#p.3)" d="m27.334646 73.22835l0 0c0 -26.4053 21.384573 -47.811028 47.76378 -47.811028l0 0c12.66774 0 24.816643 5.03722 33.774094 14.003527c8.957443 8.966305 13.989685 21.127224 13.989685 33.8075l0 0c0 26.405296 -21.384575 47.81102 -47.76378 47.81102l0 0c-26.379208 0 -47.76378 -21.405724 -47.76378 -47.81102z" fill-rule="evenodd"/><path stroke="#9fc5e8" stroke-width="1.0" stroke-linejoin="round" stroke-linecap="butt" d="m27.334646 73.22835l0 0c0 -26.4053 21.384573 -47.811028 47.76378 -47.811028l0 0c12.66774 0 24.816643 5.03722 33.774094 14.003527c8.957443 8.966305 13.989685 21.127224 13.989685 33.8075l0 0c0 26.405296 -21.384575 47.81102 -47.76378 47.81102l0 0c-26.379208 0 -47.76378 -21.405724 -47.76378 -47.81102z" fill-rule="evenodd"/><path fill="#ffffff" d="m50.35302 61.952755l0 0c0 -6.583931 5.3161774 -11.921257 11.874016 -11.921257l0 0c3.1491852 0 6.169388 1.2559853 8.396194 3.4916534c2.2268143 2.235672 3.4778214 5.267891 3.4778214 8.429604l0 0c0 6.583927 -5.3161774 11.921261 -11.874016 11.921261l0 0c-6.5578384 0 -11.874016 -5.3373337 -11.874016 -11.921261z" fill-rule="evenodd"/><path stroke="#000000" stroke-width="1.0" stroke-linejoin="round" stroke-linecap="butt" d="m50.35302 61.952755l0 0c0 -6.583931 5.3161774 -11.921257 11.874016 -11.921257l0 0c3.1491852 0 6.169388 1.2559853 8.396194 3.4916534c2.2268143 2.235672 3.4778214 5.267891 3.4778214 8.429604l0 0c0 6.583927 -5.3161774 11.921261 -11.874016 11.921261l0 0c-6.5578384 0 -11.874016 -5.3373337 -11.874016 -11.921261z" fill-rule="evenodd"/><path fill="#ffffff" d="m74.75197 61.952755l0 0c0 -6.583931 5.3161774 -11.921257 11.874016 -11.921257l0 0c3.1491852 0 6.169388 1.2559853 8.396194 3.4916534c2.2268143 2.235672 3.4778214 5.267891 3.4778214 8.429604l0 0c0 6.583927 -5.3161774 11.921261 -11.874016 11.921261l0 0c-6.5578384 0 -11.874016 -5.3373337 -11.874016 -11.921261z" fill-rule="evenodd"/><path stroke="#000000" stroke-width="1.0" stroke-linejoin="round" stroke-linecap="butt" d="m74.75197 61.952755l0 0c0 -6.583931 5.3161774 -11.921257 11.874016 -11.921257l0 0c3.1491852 0 6.169388 1.2559853 8.396194 3.4916534c2.2268143 2.235672 3.4778214 5.267891 3.4778214 8.429604l0 0c0 6.583927 -5.3161774 11.921261 -11.874016 11.921261l0 0c-6.5578384 0 -11.874016 -5.3373337 -11.874016 -11.921261z" fill-rule="evenodd"/><path fill="#000000" d="m64.17979 65.13123l0 0c0 -2.530941 2.220955 -4.582676 4.9606323 -4.582676l0 0c2.7396774 0 4.9606323 2.051735 4.9606323 4.582676l0 0c0 2.5309448 -2.220955 4.5826797 -4.9606323 4.5826797l0 0c-2.7396774 0 -4.9606323 -2.051735 -4.9606323 -4.5826797z" fill-rule="evenodd"/><path stroke="#000000" stroke-width="1.0" stroke-linejoin="round" stroke-linecap="butt" d="m64.17979 65.13123l0 0c0 -2.530941 2.220955 -4.582676 4.9606323 -4.582676l0 0c2.7396774 0 4.9606323 2.051735 4.9606323 4.582676l0 0c0 2.5309448 -2.220955 4.5826797 -4.9606323 4.5826797l0 0c-2.7396774 0 -4.9606323 -2.051735 -4.9606323 -4.5826797z" fill-rule="evenodd"/><path fill="#000000" d="m74.10105 65.13123l0 0c0 -2.530941 2.2209473 -4.582676 4.9606247 -4.582676l0 0c2.739685 0 4.9606323 2.051735 4.9606323 4.582676l0 0c0 2.5309448 -2.2209473 4.5826797 -4.9606323 4.5826797l0 0c-2.7396774 0 -4.9606247 -2.051735 -4.9606247 -4.5826797z" fill-rule="evenodd"/><path stroke="#000000" stroke-width="1.0" stroke-linejoin="round" stroke-linecap="butt" d="m74.10105 65.13123l0 0c0 -2.530941 2.2209473 -4.582676 4.9606247 -4.582676l0 0c2.739685 0 4.9606323 2.051735 4.9606323 4.582676l0 0c0 2.5309448 -2.2209473 4.5826797 -4.9606323 4.5826797l0 0c-2.7396774 0 -4.9606247 -2.051735 -4.9606247 -4.5826797z" fill-rule="evenodd"/><path fill="#ead1dc" d="m63.22441 73.874016l23.748032 0l-11.874016 12.981628z" fill-rule="evenodd"/><path stroke="#000000" stroke-width="1.0" stroke-linejoin="round" stroke-linecap="butt" d="m63.22441 73.874016l23.748032 0l-11.874016 12.981628z" fill-rule="evenodd"/><path fill="#000000" fill-opacity="0.0" d="m75.09843 86.855644l-0.25196838 15.0866165" fill-rule="evenodd"/><path stroke="#000000" stroke-width="1.0" stroke-linejoin="round" stroke-linecap="butt" d="m75.09843 86.855644l-0.25196838 15.0866165" fill-rule="evenodd"/></g></svg>